<svg width="340" height="340" viewBox="0 0 340 339" preserveAspectRatio="none" fill="none" xmlns="http://www.w3.org/2000/svg">
<path d="M87.6855 301.302C87.6855 280.695 104.391 263.989 124.999 263.989H248.132C250.192 263.989 251.863 265.66 251.863 267.721V334.884C251.863 336.945 250.192 338.615 248.132 338.615H124.999C104.391 338.615 87.6855 321.91 87.6855 301.302Z" fill="#876DFF"/>
<path d="M0 37.313C0 16.7056 16.7056 0 37.313 0H319.026V74.626H37.313C16.7056 74.626 0 57.9204 0 37.313Z" fill="#C3B6FF"/>
<path d="M302.235 337.683C281.627 337.683 264.922 320.978 264.922 300.37L264.922 0.000335693L335.817 0.000336539C337.877 0.000336563 339.548 1.6709 339.548 3.73163L339.548 300.37C339.548 320.977 322.842 337.683 302.235 337.683Z" fill="#C3B6FF"/>
<path d="M0 124.999C0 104.391 16.7056 87.6855 37.313 87.6855H231.341V162.312H37.313C16.7056 162.312 0 145.606 0 124.999Z" fill="#A592FF"/>
<rect x="16.791" y="175.372" width="222.012" height="74.626" fill="#A592FF"/>
<path d="M37.313 337.683C16.7056 337.683 1.99212e-07 320.978 4.44953e-07 300.37L1.89105e-06 179.103C1.91563e-06 177.042 1.67056 175.372 3.7313 175.372L74.626 175.372L74.626 300.37C74.626 320.977 57.9204 337.683 37.313 337.683Z" fill="#A592FF"/>
<path d="M177.641 249.657L177.641 87.3456L248.535 87.3456C250.596 87.3456 252.267 89.0162 252.267 91.0769L252.267 245.926C252.267 247.987 250.596 249.657 248.535 249.657L177.641 249.657Z" fill="#A592FF"/>
</svg>
