<svg width="338" height="339" viewBox="0 0 338 339" fill="none" xmlns="http://www.w3.org/2000/svg">
  <!-- Outer subtle dashed frame -->
  <rect x="2" y="2" width="334" height="335" rx="14" stroke="#6949FF" stroke-width="2.5" stroke-dasharray="6 6" stroke-opacity="0.25"/>

  <!-- Connecting Path 1 (Purple - Top-Left to Mid-Right) -->
  <path d="M 64 64 L 170 64 Q 204 64 204 98 L 204 170 Q 204 204 238 204 L 274 204" stroke="#6949FF" stroke-width="16" stroke-linecap="round" stroke-linejoin="round"/>

  <!-- Connecting Path 2 (Medium Purple - Bottom-Left to Top-Right) -->
  <path d="M 64 274 L 64 170 Q 64 136 98 136 L 204 136 Q 238 136 238 102 L 238 64" stroke="#876DFF" stroke-width="16" stroke-linecap="round" stroke-linejoin="round"/>

  <!-- Connecting Path 3 (Soft Purple - Bottom-Mid to Top-Right Node) -->
  <path d="M 124 274 L 214 274 Q 274 274 274 214 L 274 124" stroke="#A592FF" stroke-width="16" stroke-linecap="round" stroke-linejoin="round"/>

  <!-- Dots & Rings -->
  <!-- Path 1 Nodes (Purple) -->
  <circle cx="64" cy="64" r="18" fill="#6949FF"/>
  <circle cx="64" cy="64" r="7" fill="#FFFFFF"/>

  <circle cx="274" cy="204" r="18" fill="#6949FF"/>
  <circle cx="274" cy="204" r="7" fill="#FFFFFF"/>

  <!-- Path 2 Nodes (Medium Purple) -->
  <circle cx="64" cy="274" r="18" fill="#876DFF"/>
  <circle cx="64" cy="274" r="7" fill="#FFFFFF"/>

  <circle cx="238" cy="64" r="18" fill="#876DFF"/>
  <circle cx="238" cy="64" r="7" fill="#FFFFFF"/>

  <!-- Path 3 Nodes (Soft Purple) -->
  <circle cx="124" cy="274" r="18" fill="#A592FF"/>
  <circle cx="124" cy="274" r="7" fill="#FFFFFF"/>

  <circle cx="274" cy="124" r="18" fill="#A592FF"/>
  <circle cx="274" cy="124" r="7" fill="#FFFFFF"/>

  <!-- Decorative Inner Accent Dots -->
  <circle cx="170" cy="64" r="6" fill="#FFFFFF" fill-opacity="0.8"/>
  <circle cx="204" cy="136" r="6" fill="#FFFFFF" fill-opacity="0.8"/>
  <circle cx="214" cy="274" r="6" fill="#FFFFFF" fill-opacity="0.8"/>
</svg>
