<svg width="32" height="32" viewBox="0 0 32 32" fill="none" xmlns="http://www.w3.org/2000/svg">
<path d="M8.68272 8.68366C6.86783 10.5018 5.79484 12.9305 5.67281 15.4966C5.55078 18.0626 6.38845 20.5822 8.0226 22.5644C9.65676 24.5465 11.9703 25.8493 14.5126 26.2189C17.0548 26.5885 19.6435 25.9983 21.7744 24.5635C23.9053 23.1286 25.4257 20.9519 26.0394 18.4573C26.653 15.9627 26.3159 13.329 25.0939 11.0694C23.8718 8.80974 21.8522 7.08601 19.4286 6.23404C17.0051 5.38207 14.3511 5.4629 11.9839 6.46078C10.7507 6.98243 9.62984 7.73719 8.68272 8.68366ZM16.0229 24.66C13.7325 24.6851 11.5259 23.7993 9.88858 22.1974C8.25126 20.5956 7.31732 18.4089 7.29224 16.1185C7.26715 13.828 8.15296 11.6214 9.75481 9.98411C11.3567 8.34679 13.5433 7.41285 15.8338 7.38777H16.0229V24.66Z" fill="#6949FF"/>
<path d="M16.0044 32.0002C12.8382 32.0021 9.74253 31.0647 7.10912 29.3068C4.4757 27.5489 2.42287 25.0494 1.21034 22.1246C-0.00219329 19.1997 -0.319937 15.9809 0.297307 12.8754C0.914551 9.76991 2.43905 6.91728 4.67792 4.67841C6.91679 2.43954 9.76943 0.91504 12.8749 0.297795C15.9804 -0.319449 19.1992 -0.00170501 22.1241 1.21083C25.0489 2.42336 27.5484 4.47619 29.3064 7.1096C31.0643 9.74302 32.0016 12.8387 31.9997 16.0049C31.9922 20.2448 30.3046 24.3089 27.3065 27.307C24.3084 30.3051 20.2443 31.9927 16.0044 32.0002ZM16.0044 2.55413C13.3441 2.55413 10.7435 3.34301 8.53157 4.821C6.3196 6.29899 4.59558 8.39971 3.57752 10.8575C2.55947 13.3153 2.2931 16.0198 2.8121 18.629C3.3311 21.2382 4.61216 23.6349 6.49329 25.516C8.37441 27.3972 10.7711 28.6782 13.3803 29.1972C15.9895 29.7162 18.694 29.4499 21.1518 28.4318C23.6096 27.4138 25.7103 25.6897 27.1883 23.4778C28.6663 21.2658 29.4552 18.6652 29.4552 16.0049C29.4502 12.4391 28.0315 9.02073 25.51 6.4993C22.9886 3.97787 19.5703 2.55914 16.0044 2.55413Z" fill="#6949FF"/>
</svg>
