<svg width="26" height="26" viewBox="0 0 26 26" fill="none" xmlns="http://www.w3.org/2000/svg">
<path fill-rule="evenodd" clip-rule="evenodd" d="M15.9658 6.40443C16.2976 6.40898 16.6301 6.41354 16.9638 6.41695C20.5493 6.41695 23.1634 8.97312 23.1634 12.5031V17.0372C23.1634 20.5672 20.5493 23.1233 16.9638 23.1233C15.5276 23.1538 14.0913 23.1639 12.6448 23.1639C11.1982 23.1639 9.7413 23.1538 8.30506 23.1233C4.71963 23.1233 2.10547 20.5672 2.10547 17.0372V12.5031C2.10547 8.97312 4.71963 6.41695 8.3154 6.41695C9.66897 6.39667 11.0535 6.37638 12.4588 6.37638V6.20394C12.4588 5.50404 11.8698 4.936 11.1672 4.936H10.1443C8.97669 4.936 8.02608 4.0028 8.02608 2.86672C8.02608 2.45084 8.37739 2.10596 8.80103 2.10596C9.235 2.10596 9.57598 2.45084 9.57598 2.86672C9.57598 3.17103 9.8343 3.41447 10.1443 3.41447H11.1672C12.7274 3.42462 13.9984 4.67227 14.0087 6.1938V6.38652C14.6601 6.38652 15.3114 6.39546 15.9658 6.40443ZM11.4255 15.5258H10.3406V16.601C10.3406 17.0169 9.98926 17.3618 9.56563 17.3618C9.13165 17.3618 8.79068 17.0169 8.79068 16.601V15.5258H7.69541C7.27178 15.5258 6.92047 15.1911 6.92047 14.765C6.92047 14.3492 7.27178 14.0043 7.69541 14.0043H8.79068V12.9392C8.79068 12.5233 9.13165 12.1784 9.56563 12.1784C9.98926 12.1784 10.3406 12.5233 10.3406 12.9392V14.0043H11.4255C11.8491 14.0043 12.2005 14.3492 12.2005 14.765C12.2005 15.1911 11.8491 15.5258 11.4255 15.5258ZM15.8169 13.8115H15.9202C16.3438 13.8115 16.6951 13.4768 16.6951 13.0507C16.6951 12.6349 16.3438 12.29 15.9202 12.29H15.8169C15.3829 12.29 15.0419 12.6349 15.0419 13.0507C15.0419 13.4768 15.3829 13.8115 15.8169 13.8115ZM17.5837 17.3009H17.6871C18.1107 17.3009 18.462 16.9662 18.462 16.5401C18.462 16.1242 18.1107 15.7794 17.6871 15.7794H17.5837C17.1487 15.7794 16.8088 16.1242 16.8088 16.5401C16.8088 16.9662 17.1487 17.3009 17.5837 17.3009Z" fill="#424242"/>
</svg>
