<svg width="42" height="42" viewBox="0 0 42 42" fill="none" xmlns="http://www.w3.org/2000/svg">
<path d="M25.857 20.2426C27.0709 19.542 27.0709 17.7913 25.857 17.0908L19.9374 13.6753C18.7235 12.9747 17.2058 13.8508 17.2058 15.2519V22.0814C17.2058 23.4825 18.7235 24.3586 19.9374 23.658L25.857 20.2426Z" fill="url(#paint0_linear_2546_2068)"/>
<path fill-rule="evenodd" clip-rule="evenodd" d="M30.3323 33.9851C34.8402 34.0303 38.6189 30.5727 38.9835 26.1137C39.1532 23.541 39.2199 20.9557 39.1961 18.3712C39.1754 16.1103 39.0865 13.8493 38.9375 11.5988C38.7708 9.58 37.8837 7.68861 36.4379 6.26821C34.9921 4.84856 33.0839 3.99543 31.0607 3.86436C27.8282 3.59109 24.4134 3.5 20.9986 3.5C17.5838 3.5 14.169 3.59109 10.9816 3.81844C8.95854 3.94952 7.0503 4.80339 5.60448 6.22304C4.15867 7.64269 3.27162 9.53482 3.10488 11.5536C2.74102 16.422 2.69507 21.2453 3.01373 26.1137C3.18862 28.2769 4.17868 30.2935 5.7853 31.7553C7.39119 33.2164 9.49284 34.0133 11.6649 33.9851H16.4455V39.9L25.5517 33.9851H30.3323ZM16.4455 33.9851V28.0703H11.6649C10.2532 28.1155 9.02375 27.1142 8.88739 25.7042C8.61394 21.1542 8.65989 16.6042 8.97854 12.0542C9.03116 11.3144 9.39058 10.6827 9.93229 10.2643C10.3243 9.96213 10.8112 9.7718 11.3462 9.73329C14.4424 9.50594 17.7201 9.41485 20.9986 9.41485C24.2771 9.41485 27.5548 9.55186 30.6509 9.68812C31.8804 9.77921 32.9275 10.7345 33.0186 12.0083C33.3832 16.5583 33.3832 21.1083 33.1098 25.6583C32.9275 27.0691 31.744 28.1155 30.3323 28.0703H25.5517L16.4455 33.9851Z" fill="url(#paint1_linear_2546_2068)"/>
<defs>
<linearGradient id="paint0_linear_2546_2068" x1="39.2008" y1="39.9" x2="-4.11195" y2="27.3419" gradientUnits="userSpaceOnUse">
<stop stop-color="#6949FF"/>
<stop offset="1" stop-color="#876DFF"/>
</linearGradient>
<linearGradient id="paint1_linear_2546_2068" x1="39.2008" y1="39.9" x2="-4.11195" y2="27.3419" gradientUnits="userSpaceOnUse">
<stop stop-color="#6949FF"/>
<stop offset="1" stop-color="#876DFF"/>
</linearGradient>
</defs>
</svg>
